<svg width="63" height="63" viewBox="0 0 63 63" fill="none" xmlns="http://www.w3.org/2000/svg">
<mask id="path-1-outside-1_739_3490" maskUnits="userSpaceOnUse" x="0.00878906" y="5.13464" width="61" height="58" fill="black">
<rect fill="white" x="0.00878906" y="5.13464" width="61" height="58"/>
<path d="M60.5142 32.3553C60.5841 32.1527 60.5889 31.9331 60.5278 31.7276C60.4667 31.522 60.3428 31.3408 60.1734 31.2092C60.0041 31.0777 59.7978 31.0025 59.5835 30.9941C59.3693 30.9857 59.1577 31.0446 58.9787 31.1626C57.1732 32.3516 55.1734 32.9055 52.685 32.9055C46.0316 32.9055 40.6187 27.3615 40.6187 20.547C40.6187 15.4094 43.9358 10.562 48.6852 8.75895C48.8844 8.68349 49.0552 8.54795 49.174 8.3711C49.2927 8.19425 49.3535 7.98484 49.348 7.77188C49.3424 7.55892 49.2708 7.35296 49.143 7.18253C49.0152 7.01209 48.8376 6.88562 48.6347 6.82063C46.7509 6.21616 44.5822 6.13464 42.7092 6.13464C32.173 6.13464 23.6011 14.8875 23.6011 25.6462C23.5997 27.2657 23.7961 28.8794 24.1857 30.4513C22.9264 29.9903 21.5958 29.7543 20.2548 29.7539C13.9479 29.7539 8.8174 34.8214 8.8174 41.0501C8.81796 41.9035 8.91799 42.754 9.11546 43.5842C7.08298 43.9134 5.20812 44.8812 3.76262 46.3474C1.99599 48.1227 1.00564 50.5263 1.0088 53.0308C1.0088 58.3159 5.36141 62.6155 10.7114 62.6155H42.8117C48.6402 62.6155 53.3819 57.9319 53.3819 52.1751C53.3792 50.5904 53.0136 49.0274 52.3133 47.6059C51.6129 46.1843 50.5963 44.942 49.3415 43.9742C54.534 42.0323 58.6269 37.8213 60.5142 32.3553ZM51.3281 52.1751C51.3281 56.7993 47.5077 60.5616 42.8117 60.5616H10.7114C6.49385 60.5616 3.06264 57.1833 3.06264 53.0308C3.06076 51.067 3.83789 49.1825 5.22355 47.7909C6.61654 46.3802 8.50166 45.5636 10.4836 45.5124C10.6458 45.5076 10.8045 45.4645 10.9468 45.3865C11.089 45.3085 11.2108 45.1979 11.3021 45.0638C11.3934 44.9297 11.4516 44.7758 11.4719 44.6148C11.4923 44.4539 11.4742 44.2904 11.4192 44.1378C11.0589 43.1481 10.8734 42.1033 10.8709 41.0501C10.8709 35.9539 15.0805 31.8077 20.2544 31.8077C24.154 31.8077 27.6867 34.2338 29.0454 37.8437C29.0949 37.9754 29.1709 38.0955 29.2688 38.1965C29.3666 38.2975 29.4842 38.3774 29.6142 38.4311C29.7441 38.4849 29.8838 38.5114 30.0244 38.5089C30.165 38.5064 30.3037 38.4751 30.4317 38.4169C31.3219 38.0091 32.2895 37.7981 33.2686 37.7982C36.4883 37.7982 39.2838 40.0501 39.916 43.1528C39.9702 43.4187 40.1274 43.6524 40.3534 43.8027C40.5794 43.9531 40.8556 44.0079 41.1219 43.9551C41.6784 43.8446 42.2444 43.7887 42.8118 43.7882C47.5077 43.7885 51.3281 47.5507 51.3281 52.1751ZM46.959 42.5734C45.2931 41.8708 43.4759 41.6032 41.6782 41.7956C40.518 38.2374 37.126 35.7447 33.2685 35.7447C32.3485 35.7439 31.434 35.8872 30.5584 36.1693C29.688 34.3905 28.368 32.8698 26.7293 31.7578C26.0149 29.7995 25.6512 27.7307 25.655 25.6462C25.655 16.0199 33.3056 8.18849 42.7092 8.18849C43.5003 8.18849 44.3459 8.20338 45.1858 8.27039C41.1795 10.9466 38.5648 15.6337 38.5648 20.547C38.5648 28.494 44.8991 34.9594 52.685 34.9594C54.4639 34.9594 56.0369 34.712 57.484 34.1948C55.2745 38.3672 51.4949 41.4086 46.959 42.573V42.5734Z"/>
</mask>
<path d="M60.5142 32.3553C60.5841 32.1527 60.5889 31.9331 60.5278 31.7276C60.4667 31.522 60.3428 31.3408 60.1734 31.2092C60.0041 31.0777 59.7978 31.0025 59.5835 30.9941C59.3693 30.9857 59.1577 31.0446 58.9787 31.1626C57.1732 32.3516 55.1734 32.9055 52.685 32.9055C46.0316 32.9055 40.6187 27.3615 40.6187 20.547C40.6187 15.4094 43.9358 10.562 48.6852 8.75895C48.8844 8.68349 49.0552 8.54795 49.174 8.3711C49.2927 8.19425 49.3535 7.98484 49.348 7.77188C49.3424 7.55892 49.2708 7.35296 49.143 7.18253C49.0152 7.01209 48.8376 6.88562 48.6347 6.82063C46.7509 6.21616 44.5822 6.13464 42.7092 6.13464C32.173 6.13464 23.6011 14.8875 23.6011 25.6462C23.5997 27.2657 23.7961 28.8794 24.1857 30.4513C22.9264 29.9903 21.5958 29.7543 20.2548 29.7539C13.9479 29.7539 8.8174 34.8214 8.8174 41.0501C8.81796 41.9035 8.91799 42.754 9.11546 43.5842C7.08298 43.9134 5.20812 44.8812 3.76262 46.3474C1.99599 48.1227 1.00564 50.5263 1.0088 53.0308C1.0088 58.3159 5.36141 62.6155 10.7114 62.6155H42.8117C48.6402 62.6155 53.3819 57.9319 53.3819 52.1751C53.3792 50.5904 53.0136 49.0274 52.3133 47.6059C51.6129 46.1843 50.5963 44.942 49.3415 43.9742C54.534 42.0323 58.6269 37.8213 60.5142 32.3553ZM51.3281 52.1751C51.3281 56.7993 47.5077 60.5616 42.8117 60.5616H10.7114C6.49385 60.5616 3.06264 57.1833 3.06264 53.0308C3.06076 51.067 3.83789 49.1825 5.22355 47.7909C6.61654 46.3802 8.50166 45.5636 10.4836 45.5124C10.6458 45.5076 10.8045 45.4645 10.9468 45.3865C11.089 45.3085 11.2108 45.1979 11.3021 45.0638C11.3934 44.9297 11.4516 44.7758 11.4719 44.6148C11.4923 44.4539 11.4742 44.2904 11.4192 44.1378C11.0589 43.1481 10.8734 42.1033 10.8709 41.0501C10.8709 35.9539 15.0805 31.8077 20.2544 31.8077C24.154 31.8077 27.6867 34.2338 29.0454 37.8437C29.0949 37.9754 29.1709 38.0955 29.2688 38.1965C29.3666 38.2975 29.4842 38.3774 29.6142 38.4311C29.7441 38.4849 29.8838 38.5114 30.0244 38.5089C30.165 38.5064 30.3037 38.4751 30.4317 38.4169C31.3219 38.0091 32.2895 37.7981 33.2686 37.7982C36.4883 37.7982 39.2838 40.0501 39.916 43.1528C39.9702 43.4187 40.1274 43.6524 40.3534 43.8027C40.5794 43.9531 40.8556 44.0079 41.1219 43.9551C41.6784 43.8446 42.2444 43.7887 42.8118 43.7882C47.5077 43.7885 51.3281 47.5507 51.3281 52.1751ZM46.959 42.5734C45.2931 41.8708 43.4759 41.6032 41.6782 41.7956C40.518 38.2374 37.126 35.7447 33.2685 35.7447C32.3485 35.7439 31.434 35.8872 30.5584 36.1693C29.688 34.3905 28.368 32.8698 26.7293 31.7578C26.0149 29.7995 25.6512 27.7307 25.655 25.6462C25.655 16.0199 33.3056 8.18849 42.7092 8.18849C43.5003 8.18849 44.3459 8.20338 45.1858 8.27039C41.1795 10.9466 38.5648 15.6337 38.5648 20.547C38.5648 28.494 44.8991 34.9594 52.685 34.9594C54.4639 34.9594 56.0369 34.712 57.484 34.1948C55.2745 38.3672 51.4949 41.4086 46.959 42.573V42.5734Z" fill="#64D370"/>
<path d="M60.5142 32.3553C60.5841 32.1527 60.5889 31.9331 60.5278 31.7276C60.4667 31.522 60.3428 31.3408 60.1734 31.2092C60.0041 31.0777 59.7978 31.0025 59.5835 30.9941C59.3693 30.9857 59.1577 31.0446 58.9787 31.1626C57.1732 32.3516 55.1734 32.9055 52.685 32.9055C46.0316 32.9055 40.6187 27.3615 40.6187 20.547C40.6187 15.4094 43.9358 10.562 48.6852 8.75895C48.8844 8.68349 49.0552 8.54795 49.174 8.3711C49.2927 8.19425 49.3535 7.98484 49.348 7.77188C49.3424 7.55892 49.2708 7.35296 49.143 7.18253C49.0152 7.01209 48.8376 6.88562 48.6347 6.82063C46.7509 6.21616 44.5822 6.13464 42.7092 6.13464C32.173 6.13464 23.6011 14.8875 23.6011 25.6462C23.5997 27.2657 23.7961 28.8794 24.1857 30.4513C22.9264 29.9903 21.5958 29.7543 20.2548 29.7539C13.9479 29.7539 8.8174 34.8214 8.8174 41.0501C8.81796 41.9035 8.91799 42.754 9.11546 43.5842C7.08298 43.9134 5.20812 44.8812 3.76262 46.3474C1.99599 48.1227 1.00564 50.5263 1.0088 53.0308C1.0088 58.3159 5.36141 62.6155 10.7114 62.6155H42.8117C48.6402 62.6155 53.3819 57.9319 53.3819 52.1751C53.3792 50.5904 53.0136 49.0274 52.3133 47.6059C51.6129 46.1843 50.5963 44.942 49.3415 43.9742C54.534 42.0323 58.6269 37.8213 60.5142 32.3553ZM51.3281 52.1751C51.3281 56.7993 47.5077 60.5616 42.8117 60.5616H10.7114C6.49385 60.5616 3.06264 57.1833 3.06264 53.0308C3.06076 51.067 3.83789 49.1825 5.22355 47.7909C6.61654 46.3802 8.50166 45.5636 10.4836 45.5124C10.6458 45.5076 10.8045 45.4645 10.9468 45.3865C11.089 45.3085 11.2108 45.1979 11.3021 45.0638C11.3934 44.9297 11.4516 44.7758 11.4719 44.6148C11.4923 44.4539 11.4742 44.2904 11.4192 44.1378C11.0589 43.1481 10.8734 42.1033 10.8709 41.0501C10.8709 35.9539 15.0805 31.8077 20.2544 31.8077C24.154 31.8077 27.6867 34.2338 29.0454 37.8437C29.0949 37.9754 29.1709 38.0955 29.2688 38.1965C29.3666 38.2975 29.4842 38.3774 29.6142 38.4311C29.7441 38.4849 29.8838 38.5114 30.0244 38.5089C30.165 38.5064 30.3037 38.4751 30.4317 38.4169C31.3219 38.0091 32.2895 37.7981 33.2686 37.7982C36.4883 37.7982 39.2838 40.0501 39.916 43.1528C39.9702 43.4187 40.1274 43.6524 40.3534 43.8027C40.5794 43.9531 40.8556 44.0079 41.1219 43.9551C41.6784 43.8446 42.2444 43.7887 42.8118 43.7882C47.5077 43.7885 51.3281 47.5507 51.3281 52.1751ZM46.959 42.5734C45.2931 41.8708 43.4759 41.6032 41.6782 41.7956C40.518 38.2374 37.126 35.7447 33.2685 35.7447C32.3485 35.7439 31.434 35.8872 30.5584 36.1693C29.688 34.3905 28.368 32.8698 26.7293 31.7578C26.0149 29.7995 25.6512 27.7307 25.655 25.6462C25.655 16.0199 33.3056 8.18849 42.7092 8.18849C43.5003 8.18849 44.3459 8.20338 45.1858 8.27039C41.1795 10.9466 38.5648 15.6337 38.5648 20.547C38.5648 28.494 44.8991 34.9594 52.685 34.9594C54.4639 34.9594 56.0369 34.712 57.484 34.1948C55.2745 38.3672 51.4949 41.4086 46.959 42.573V42.5734Z" stroke="#64D370" stroke-width="0.2" mask="url(#path-1-outside-1_739_3490)"/>
<mask id="path-2-outside-2_739_3490" maskUnits="userSpaceOnUse" x="49.2917" y="14.377" width="10" height="10" fill="black">
<rect fill="white" x="49.2917" y="14.377" width="10" height="10"/>
<path d="M54.409 15.377C54.1367 15.377 53.8755 15.4852 53.6829 15.6778C53.4903 15.8704 53.3821 16.1316 53.3821 16.4039V18.0599L51.653 17.4835C51.5247 17.4393 51.3889 17.421 51.2535 17.4296C51.118 17.4382 50.9857 17.4736 50.864 17.5337C50.7423 17.5938 50.6337 17.6774 50.5446 17.7797C50.4554 17.882 50.3874 18.0009 50.3445 18.1297C50.3015 18.2584 50.2846 18.3944 50.2945 18.5297C50.3045 18.6651 50.3411 18.7971 50.4024 18.9182C50.4637 19.0393 50.5484 19.147 50.6515 19.2352C50.7547 19.3233 50.8743 19.3902 51.0035 19.4318L52.8088 20.0336L51.5008 21.9957C51.4251 22.1079 51.3723 22.2339 51.3455 22.3665C51.3187 22.4992 51.3184 22.6358 51.3446 22.7686C51.3708 22.9013 51.4229 23.0276 51.4981 23.1401C51.5732 23.2527 51.6698 23.3493 51.7824 23.4243C51.895 23.4994 52.0213 23.5515 52.1541 23.5776C52.2869 23.6037 52.4235 23.6033 52.5561 23.5764C52.6888 23.5495 52.8148 23.4967 52.9269 23.4209C53.039 23.3452 53.1351 23.248 53.2096 23.135L54.409 21.336L55.6085 23.1352C55.7602 23.3602 55.9949 23.516 56.2612 23.5685C56.5275 23.621 56.8037 23.5659 57.0295 23.4153C57.2553 23.2648 57.4124 23.0309 57.4663 22.7649C57.5202 22.4989 57.4666 22.2224 57.3173 21.9958L56.0092 20.0337L57.8146 19.432C58.0704 19.3439 58.2812 19.1583 58.401 18.9157C58.5208 18.673 58.54 18.3929 58.4544 18.1362C58.3688 17.8795 58.1854 17.6669 57.9439 17.5447C57.7025 17.4225 57.4226 17.4006 57.165 17.4836L55.4359 18.0599V16.4039C55.4359 16.1316 55.3277 15.8704 55.1352 15.6778C54.9426 15.4852 54.6814 15.377 54.409 15.377Z"/>
</mask>
<path d="M54.409 15.377C54.1367 15.377 53.8755 15.4852 53.6829 15.6778C53.4903 15.8704 53.3821 16.1316 53.3821 16.4039V18.0599L51.653 17.4835C51.5247 17.4393 51.3889 17.421 51.2535 17.4296C51.118 17.4382 50.9857 17.4736 50.864 17.5337C50.7423 17.5938 50.6337 17.6774 50.5446 17.7797C50.4554 17.882 50.3874 18.0009 50.3445 18.1297C50.3015 18.2584 50.2846 18.3944 50.2945 18.5297C50.3045 18.6651 50.3411 18.7971 50.4024 18.9182C50.4637 19.0393 50.5484 19.147 50.6515 19.2352C50.7547 19.3233 50.8743 19.3902 51.0035 19.4318L52.8088 20.0336L51.5008 21.9957C51.4251 22.1079 51.3723 22.2339 51.3455 22.3665C51.3187 22.4992 51.3184 22.6358 51.3446 22.7686C51.3708 22.9013 51.4229 23.0276 51.4981 23.1401C51.5732 23.2527 51.6698 23.3493 51.7824 23.4243C51.895 23.4994 52.0213 23.5515 52.1541 23.5776C52.2869 23.6037 52.4235 23.6033 52.5561 23.5764C52.6888 23.5495 52.8148 23.4967 52.9269 23.4209C53.039 23.3452 53.1351 23.248 53.2096 23.135L54.409 21.336L55.6085 23.1352C55.7602 23.3602 55.9949 23.516 56.2612 23.5685C56.5275 23.621 56.8037 23.5659 57.0295 23.4153C57.2553 23.2648 57.4124 23.0309 57.4663 22.7649C57.5202 22.4989 57.4666 22.2224 57.3173 21.9958L56.0092 20.0337L57.8146 19.432C58.0704 19.3439 58.2812 19.1583 58.401 18.9157C58.5208 18.673 58.54 18.3929 58.4544 18.1362C58.3688 17.8795 58.1854 17.6669 57.9439 17.5447C57.7025 17.4225 57.4226 17.4006 57.165 17.4836L55.4359 18.0599V16.4039C55.4359 16.1316 55.3277 15.8704 55.1352 15.6778C54.9426 15.4852 54.6814 15.377 54.409 15.377Z" fill="#64D370"/>
<path d="M54.409 15.377C54.1367 15.377 53.8755 15.4852 53.6829 15.6778C53.4903 15.8704 53.3821 16.1316 53.3821 16.4039V18.0599L51.653 17.4835C51.5247 17.4393 51.3889 17.421 51.2535 17.4296C51.118 17.4382 50.9857 17.4736 50.864 17.5337C50.7423 17.5938 50.6337 17.6774 50.5446 17.7797C50.4554 17.882 50.3874 18.0009 50.3445 18.1297C50.3015 18.2584 50.2846 18.3944 50.2945 18.5297C50.3045 18.6651 50.3411 18.7971 50.4024 18.9182C50.4637 19.0393 50.5484 19.147 50.6515 19.2352C50.7547 19.3233 50.8743 19.3902 51.0035 19.4318L52.8088 20.0336L51.5008 21.9957C51.4251 22.1079 51.3723 22.2339 51.3455 22.3665C51.3187 22.4992 51.3184 22.6358 51.3446 22.7686C51.3708 22.9013 51.4229 23.0276 51.4981 23.1401C51.5732 23.2527 51.6698 23.3493 51.7824 23.4243C51.895 23.4994 52.0213 23.5515 52.1541 23.5776C52.2869 23.6037 52.4235 23.6033 52.5561 23.5764C52.6888 23.5495 52.8148 23.4967 52.9269 23.4209C53.039 23.3452 53.1351 23.248 53.2096 23.135L54.409 21.336L55.6085 23.1352C55.7602 23.3602 55.9949 23.516 56.2612 23.5685C56.5275 23.621 56.8037 23.5659 57.0295 23.4153C57.2553 23.2648 57.4124 23.0309 57.4663 22.7649C57.5202 22.4989 57.4666 22.2224 57.3173 21.9958L56.0092 20.0337L57.8146 19.432C58.0704 19.3439 58.2812 19.1583 58.401 18.9157C58.5208 18.673 58.54 18.3929 58.4544 18.1362C58.3688 17.8795 58.1854 17.6669 57.9439 17.5447C57.7025 17.4225 57.4226 17.4006 57.165 17.4836L55.4359 18.0599V16.4039C55.4359 16.1316 55.3277 15.8704 55.1352 15.6778C54.9426 15.4852 54.6814 15.377 54.409 15.377Z" stroke="#64D370" stroke-width="0.2" mask="url(#path-2-outside-2_739_3490)"/>
<mask id="path-3-outside-3_739_3490" maskUnits="userSpaceOnUse" x="-0.000244141" y="23.6191" width="10" height="10" fill="black">
<rect fill="white" x="-0.000244141" y="23.6191" width="10" height="10"/>
<path d="M4.0901 27.302L2.36102 26.7256C2.2327 26.6814 2.09691 26.6631 1.96147 26.6717C1.82604 26.6804 1.69366 26.7157 1.57198 26.7758C1.4503 26.8359 1.34174 26.9195 1.25257 27.0218C1.1634 27.1241 1.09539 27.2431 1.05247 27.3718C1.00955 27.5006 0.992571 27.6365 1.00252 27.7719C1.01247 27.9072 1.04914 28.0392 1.11042 28.1603C1.1717 28.2814 1.25637 28.3891 1.35954 28.4773C1.46271 28.5655 1.58233 28.6323 1.71149 28.674L3.51682 29.2757L2.20878 31.2378C2.13311 31.35 2.08036 31.476 2.05356 31.6087C2.02676 31.7413 2.02643 31.8779 2.05261 32.0107C2.07878 32.1434 2.13094 32.2697 2.20608 32.3823C2.28122 32.4948 2.37786 32.5914 2.49044 32.6665C2.60303 32.7415 2.72934 32.7936 2.86212 32.8197C2.9949 32.8458 3.13153 32.8454 3.26415 32.8185C3.39677 32.7916 3.52277 32.7388 3.63491 32.663C3.74705 32.5873 3.84311 32.4902 3.91758 32.3772L5.11702 30.5781L6.31647 32.3773C6.39094 32.4903 6.487 32.5874 6.59914 32.6632C6.71128 32.7389 6.83728 32.7917 6.9699 32.8186C7.10252 32.8455 7.23915 32.8459 7.37193 32.8198C7.5047 32.7937 7.63102 32.7417 7.7436 32.6666C7.85619 32.5915 7.95283 32.4949 8.02797 32.3824C8.10311 32.2699 8.15526 32.1436 8.18144 32.0108C8.20761 31.878 8.20729 31.7414 8.18049 31.6088C8.15369 31.4761 8.10094 31.3501 8.02527 31.2379L6.71723 29.2759L8.52256 28.6741C8.77843 28.586 8.98918 28.4004 9.109 28.1578C9.22882 27.9152 9.24802 27.635 9.16244 27.3783C9.07685 27.1216 8.8934 26.909 8.65195 26.7868C8.4105 26.6646 8.13058 26.6427 7.87303 26.7257L6.14395 27.302V25.6461C6.14395 25.3737 6.03575 25.1125 5.84317 24.9199C5.65058 24.7273 5.38938 24.6191 5.11702 24.6191C4.84467 24.6191 4.58347 24.7273 4.39088 24.9199C4.19829 25.1125 4.0901 25.3737 4.0901 25.6461V27.302Z"/>
</mask>
<path d="M4.0901 27.302L2.36102 26.7256C2.2327 26.6814 2.09691 26.6631 1.96147 26.6717C1.82604 26.6804 1.69366 26.7157 1.57198 26.7758C1.4503 26.8359 1.34174 26.9195 1.25257 27.0218C1.1634 27.1241 1.09539 27.2431 1.05247 27.3718C1.00955 27.5006 0.992571 27.6365 1.00252 27.7719C1.01247 27.9072 1.04914 28.0392 1.11042 28.1603C1.1717 28.2814 1.25637 28.3891 1.35954 28.4773C1.46271 28.5655 1.58233 28.6323 1.71149 28.674L3.51682 29.2757L2.20878 31.2378C2.13311 31.35 2.08036 31.476 2.05356 31.6087C2.02676 31.7413 2.02643 31.8779 2.05261 32.0107C2.07878 32.1434 2.13094 32.2697 2.20608 32.3823C2.28122 32.4948 2.37786 32.5914 2.49044 32.6665C2.60303 32.7415 2.72934 32.7936 2.86212 32.8197C2.9949 32.8458 3.13153 32.8454 3.26415 32.8185C3.39677 32.7916 3.52277 32.7388 3.63491 32.663C3.74705 32.5873 3.84311 32.4902 3.91758 32.3772L5.11702 30.5781L6.31647 32.3773C6.39094 32.4903 6.487 32.5874 6.59914 32.6632C6.71128 32.7389 6.83728 32.7917 6.9699 32.8186C7.10252 32.8455 7.23915 32.8459 7.37193 32.8198C7.5047 32.7937 7.63102 32.7417 7.7436 32.6666C7.85619 32.5915 7.95283 32.4949 8.02797 32.3824C8.10311 32.2699 8.15526 32.1436 8.18144 32.0108C8.20761 31.878 8.20729 31.7414 8.18049 31.6088C8.15369 31.4761 8.10094 31.3501 8.02527 31.2379L6.71723 29.2759L8.52256 28.6741C8.77843 28.586 8.98918 28.4004 9.109 28.1578C9.22882 27.9152 9.24802 27.635 9.16244 27.3783C9.07685 27.1216 8.8934 26.909 8.65195 26.7868C8.4105 26.6646 8.13058 26.6427 7.87303 26.7257L6.14395 27.302V25.6461C6.14395 25.3737 6.03575 25.1125 5.84317 24.9199C5.65058 24.7273 5.38938 24.6191 5.11702 24.6191C4.84467 24.6191 4.58347 24.7273 4.39088 24.9199C4.19829 25.1125 4.0901 25.3737 4.0901 25.6461V27.302Z" fill="#64D370"/>
<path d="M4.0901 27.302L2.36102 26.7256C2.2327 26.6814 2.09691 26.6631 1.96147 26.6717C1.82604 26.6804 1.69366 26.7157 1.57198 26.7758C1.4503 26.8359 1.34174 26.9195 1.25257 27.0218C1.1634 27.1241 1.09539 27.2431 1.05247 27.3718C1.00955 27.5006 0.992571 27.6365 1.00252 27.7719C1.01247 27.9072 1.04914 28.0392 1.11042 28.1603C1.1717 28.2814 1.25637 28.3891 1.35954 28.4773C1.46271 28.5655 1.58233 28.6323 1.71149 28.674L3.51682 29.2757L2.20878 31.2378C2.13311 31.35 2.08036 31.476 2.05356 31.6087C2.02676 31.7413 2.02643 31.8779 2.05261 32.0107C2.07878 32.1434 2.13094 32.2697 2.20608 32.3823C2.28122 32.4948 2.37786 32.5914 2.49044 32.6665C2.60303 32.7415 2.72934 32.7936 2.86212 32.8197C2.9949 32.8458 3.13153 32.8454 3.26415 32.8185C3.39677 32.7916 3.52277 32.7388 3.63491 32.663C3.74705 32.5873 3.84311 32.4902 3.91758 32.3772L5.11702 30.5781L6.31647 32.3773C6.39094 32.4903 6.487 32.5874 6.59914 32.6632C6.71128 32.7389 6.83728 32.7917 6.9699 32.8186C7.10252 32.8455 7.23915 32.8459 7.37193 32.8198C7.5047 32.7937 7.63102 32.7417 7.7436 32.6666C7.85619 32.5915 7.95283 32.4949 8.02797 32.3824C8.10311 32.2699 8.15526 32.1436 8.18144 32.0108C8.20761 31.878 8.20729 31.7414 8.18049 31.6088C8.15369 31.4761 8.10094 31.3501 8.02527 31.2379L6.71723 29.2759L8.52256 28.6741C8.77843 28.586 8.98918 28.4004 9.109 28.1578C9.22882 27.9152 9.24802 27.635 9.16244 27.3783C9.07685 27.1216 8.8934 26.909 8.65195 26.7868C8.4105 26.6646 8.13058 26.6427 7.87303 26.7257L6.14395 27.302V25.6461C6.14395 25.3737 6.03575 25.1125 5.84317 24.9199C5.65058 24.7273 5.38938 24.6191 5.11702 24.6191C4.84467 24.6191 4.58347 24.7273 4.39088 24.9199C4.19829 25.1125 4.0901 25.3737 4.0901 25.6461V27.302Z" stroke="#64D370" stroke-width="0.2" mask="url(#path-3-outside-3_739_3490)"/>
<mask id="path-4-outside-4_739_3490" maskUnits="userSpaceOnUse" x="6.18115" y="2.05377" width="10" height="10" fill="black">
<rect fill="white" x="6.18115" y="2.05377" width="10" height="10"/>
<path d="M8.65574 11.0966C8.88234 11.2477 9.15968 11.3026 9.42675 11.2492C9.69382 11.1958 9.92874 11.0385 10.0798 10.8119L11.2793 9.01275L12.4787 10.8119C12.6305 11.0369 12.8652 11.1927 13.1314 11.2452C13.3977 11.2977 13.674 11.2427 13.8998 11.0921C14.1256 10.9415 14.2826 10.7077 14.3365 10.4417C14.3905 10.1757 14.3369 9.89917 14.1875 9.67255L12.8795 7.71049L14.6848 7.10871C14.9407 7.02061 15.1514 6.83507 15.2712 6.59244C15.3911 6.3498 15.4103 6.06967 15.3247 5.81295C15.2391 5.55624 15.0556 5.34367 14.8142 5.22148C14.5728 5.09928 14.2928 5.07732 14.0353 5.16038L12.3062 5.73661V4.0807C12.3062 3.80834 12.198 3.54714 12.0054 3.35455C11.8128 3.16197 11.5516 3.05377 11.2793 3.05377C11.0069 3.05377 10.7457 3.16197 10.5531 3.35455C10.3605 3.54714 10.2524 3.80834 10.2524 4.0807V5.73661L8.52327 5.16025C8.26572 5.07719 7.9858 5.09915 7.74435 5.22135C7.5029 5.34355 7.31945 5.55611 7.23386 5.81283C7.14828 6.06955 7.16748 6.34967 7.2873 6.59231C7.40712 6.83494 7.61787 7.02048 7.87374 7.10858L9.67907 7.71036L8.37103 9.67255C8.21994 9.89916 8.16506 10.1765 8.21845 10.4436C8.27185 10.7106 8.42914 10.9455 8.65574 11.0966Z"/>
</mask>
<path d="M8.65574 11.0966C8.88234 11.2477 9.15968 11.3026 9.42675 11.2492C9.69382 11.1958 9.92874 11.0385 10.0798 10.8119L11.2793 9.01275L12.4787 10.8119C12.6305 11.0369 12.8652 11.1927 13.1314 11.2452C13.3977 11.2977 13.674 11.2427 13.8998 11.0921C14.1256 10.9415 14.2826 10.7077 14.3365 10.4417C14.3905 10.1757 14.3369 9.89917 14.1875 9.67255L12.8795 7.71049L14.6848 7.10871C14.9407 7.02061 15.1514 6.83507 15.2712 6.59244C15.3911 6.3498 15.4103 6.06967 15.3247 5.81295C15.2391 5.55624 15.0556 5.34367 14.8142 5.22148C14.5728 5.09928 14.2928 5.07732 14.0353 5.16038L12.3062 5.73661V4.0807C12.3062 3.80834 12.198 3.54714 12.0054 3.35455C11.8128 3.16197 11.5516 3.05377 11.2793 3.05377C11.0069 3.05377 10.7457 3.16197 10.5531 3.35455C10.3605 3.54714 10.2524 3.80834 10.2524 4.0807V5.73661L8.52327 5.16025C8.26572 5.07719 7.9858 5.09915 7.74435 5.22135C7.5029 5.34355 7.31945 5.55611 7.23386 5.81283C7.14828 6.06955 7.16748 6.34967 7.2873 6.59231C7.40712 6.83494 7.61787 7.02048 7.87374 7.10858L9.67907 7.71036L8.37103 9.67255C8.21994 9.89916 8.16506 10.1765 8.21845 10.4436C8.27185 10.7106 8.42914 10.9455 8.65574 11.0966Z" fill="#64D370"/>
<path d="M8.65574 11.0966C8.88234 11.2477 9.15968 11.3026 9.42675 11.2492C9.69382 11.1958 9.92874 11.0385 10.0798 10.8119L11.2793 9.01275L12.4787 10.8119C12.6305 11.0369 12.8652 11.1927 13.1314 11.2452C13.3977 11.2977 13.674 11.2427 13.8998 11.0921C14.1256 10.9415 14.2826 10.7077 14.3365 10.4417C14.3905 10.1757 14.3369 9.89917 14.1875 9.67255L12.8795 7.71049L14.6848 7.10871C14.9407 7.02061 15.1514 6.83507 15.2712 6.59244C15.3911 6.3498 15.4103 6.06967 15.3247 5.81295C15.2391 5.55624 15.0556 5.34367 14.8142 5.22148C14.5728 5.09928 14.2928 5.07732 14.0353 5.16038L12.3062 5.73661V4.0807C12.3062 3.80834 12.198 3.54714 12.0054 3.35455C11.8128 3.16197 11.5516 3.05377 11.2793 3.05377C11.0069 3.05377 10.7457 3.16197 10.5531 3.35455C10.3605 3.54714 10.2524 3.80834 10.2524 4.0807V5.73661L8.52327 5.16025C8.26572 5.07719 7.9858 5.09915 7.74435 5.22135C7.5029 5.34355 7.31945 5.55611 7.23386 5.81283C7.14828 6.06955 7.16748 6.34967 7.2873 6.59231C7.40712 6.83494 7.61787 7.02048 7.87374 7.10858L9.67907 7.71036L8.37103 9.67255C8.21994 9.89916 8.16506 10.1765 8.21845 10.4436C8.27185 10.7106 8.42914 10.9455 8.65574 11.0966Z" stroke="#64D370" stroke-width="0.2" mask="url(#path-4-outside-4_739_3490)"/>
<mask id="path-5-outside-5_739_3490" maskUnits="userSpaceOnUse" x="57.5178" y="4.10773" width="4" height="4" fill="black">
<rect fill="white" x="57.5178" y="4.10773" width="4" height="4"/>
<path d="M59.5447 7.16158C60.1119 7.16158 60.5717 6.70181 60.5717 6.13465C60.5717 5.5675 60.1119 5.10773 59.5447 5.10773C58.9776 5.10773 58.5178 5.5675 58.5178 6.13465C58.5178 6.70181 58.9776 7.16158 59.5447 7.16158Z"/>
</mask>
<path d="M59.5447 7.16158C60.1119 7.16158 60.5717 6.70181 60.5717 6.13465C60.5717 5.5675 60.1119 5.10773 59.5447 5.10773C58.9776 5.10773 58.5178 5.5675 58.5178 6.13465C58.5178 6.70181 58.9776 7.16158 59.5447 7.16158Z" fill="#64D370"/>
<path d="M59.5447 7.16158C60.1119 7.16158 60.5717 6.70181 60.5717 6.13465C60.5717 5.5675 60.1119 5.10773 59.5447 5.10773C58.9776 5.10773 58.5178 5.5675 58.5178 6.13465C58.5178 6.70181 58.9776 7.16158 59.5447 7.16158Z" stroke="#64D370" stroke-width="0.2" mask="url(#path-5-outside-5_739_3490)"/>
<mask id="path-6-outside-6_739_3490" maskUnits="userSpaceOnUse" x="15.4121" y="19.5117" width="4" height="4" fill="black">
<rect fill="white" x="15.4121" y="19.5117" width="4" height="4"/>
<path d="M17.439 22.5655C18.0062 22.5655 18.466 22.1057 18.466 21.5386C18.466 20.9714 18.0062 20.5117 17.439 20.5117C16.8719 20.5117 16.4121 20.9714 16.4121 21.5386C16.4121 22.1057 16.8719 22.5655 17.439 22.5655Z"/>
</mask>
<path d="M17.439 22.5655C18.0062 22.5655 18.466 22.1057 18.466 21.5386C18.466 20.9714 18.0062 20.5117 17.439 20.5117C16.8719 20.5117 16.4121 20.9714 16.4121 21.5386C16.4121 22.1057 16.8719 22.5655 17.439 22.5655Z" fill="#64D370"/>
<path d="M17.439 22.5655C18.0062 22.5655 18.466 22.1057 18.466 21.5386C18.466 20.9714 18.0062 20.5117 17.439 20.5117C16.8719 20.5117 16.4121 20.9714 16.4121 21.5386C16.4121 22.1057 16.8719 22.5655 17.439 22.5655Z" stroke="#64D370" stroke-width="0.2" mask="url(#path-6-outside-6_739_3490)"/>
<mask id="path-7-outside-7_739_3490" maskUnits="userSpaceOnUse" x="30.8171" y="0" width="4" height="4" fill="black">
<rect fill="white" x="30.8171" width="4" height="4"/>
<path d="M32.8441 3.05385C33.4112 3.05385 33.871 2.59408 33.871 2.02692C33.871 1.45977 33.4112 1 32.8441 1C32.2769 1 31.8171 1.45977 31.8171 2.02692C31.8171 2.59408 32.2769 3.05385 32.8441 3.05385Z"/>
</mask>
<path d="M32.8441 3.05385C33.4112 3.05385 33.871 2.59408 33.871 2.02692C33.871 1.45977 33.4112 1 32.8441 1C32.2769 1 31.8171 1.45977 31.8171 2.02692C31.8171 2.59408 32.2769 3.05385 32.8441 3.05385Z" fill="#64D370"/>
<path d="M32.8441 3.05385C33.4112 3.05385 33.871 2.59408 33.871 2.02692C33.871 1.45977 33.4112 1 32.8441 1C32.2769 1 31.8171 1.45977 31.8171 2.02692C31.8171 2.59408 32.2769 3.05385 32.8441 3.05385Z" stroke="#64D370" stroke-width="0.2" mask="url(#path-7-outside-7_739_3490)"/>
<mask id="path-8-outside-8_739_3490" maskUnits="userSpaceOnUse" x="59.5715" y="40.0499" width="4" height="4" fill="black">
<rect fill="white" x="59.5715" y="40.0499" width="4" height="4"/>
<path d="M61.5985 43.1038C62.1656 43.1038 62.6254 42.644 62.6254 42.0769C62.6254 41.5097 62.1656 41.0499 61.5985 41.0499C61.0313 41.0499 60.5715 41.5097 60.5715 42.0769C60.5715 42.644 61.0313 43.1038 61.5985 43.1038Z"/>
</mask>
<path d="M61.5985 43.1038C62.1656 43.1038 62.6254 42.644 62.6254 42.0769C62.6254 41.5097 62.1656 41.0499 61.5985 41.0499C61.0313 41.0499 60.5715 41.5097 60.5715 42.0769C60.5715 42.644 61.0313 43.1038 61.5985 43.1038Z" fill="#64D370"/>
<path d="M61.5985 43.1038C62.1656 43.1038 62.6254 42.644 62.6254 42.0769C62.6254 41.5097 62.1656 41.0499 61.5985 41.0499C61.0313 41.0499 60.5715 41.5097 60.5715 42.0769C60.5715 42.644 61.0313 43.1038 61.5985 43.1038Z" stroke="#64D370" stroke-width="0.2" mask="url(#path-8-outside-8_739_3490)"/>
</svg>
