<?xml version="1.0" encoding="UTF-8" standalone="no" ?>
<!DOCTYPE svg PUBLIC "-//W3C//DTD SVG 1.1//EN" "http://www.w3.org/Graphics/SVG/1.1/DTD/svg11.dtd">
<svg xmlns="http://www.w3.org/2000/svg" xmlns:xlink="http://www.w3.org/1999/xlink" version="1.1" width="55" height="55" viewBox="0 0 483 483" xml:space="preserve">
<desc>Created with Fabric.js 4.6.0</desc>
<defs>
</defs>
<g transform="matrix(9.42 0 0 9.42 241.5 365.84)" id="GWx88r-ykUcJBoBFRoQ2j"  >
<path style="stroke: none; stroke-width: 1; stroke-dasharray: none; stroke-linecap: butt; stroke-dashoffset: 0; stroke-linejoin: miter; stroke-miterlimit: 4; fill: rgb(2,2,2); fill-rule: nonzero; opacity: 1;" vector-effect="non-scaling-stroke"  transform=" translate(-20, -9)" d="M 38.9453 0 L 8.42539 0 C 8.1018 0 7.83945 0.324155 7.83945 0.72399 C 7.83945 1.12383 8.1018 1.44798 8.42539 1.44798 L 38.8281 1.44798 L 38.8281 4.23071 L 1.17188 4.23071 L 1.17188 1.44798 L 6.08164 1.44798 C 6.40523 1.44798 6.66758 1.12383 6.66758 0.72399 C 6.66758 0.324155 6.40523 0 6.08164 0 L 1.05469 0 C 0.473125 0 0 0.584598 0 1.30318 L 0 4.37551 C 0 5.09409 0.473125 5.67869 1.05469 5.67869 L 1.88102 5.67869 L 1.88102 16.552 C 1.88102 17.2706 2.35414 17.8552 2.9357 17.8552 L 4.94727 17.8552 C 5.52883 17.8552 6.00195 17.2706 6.00195 16.552 C 6.00195 16.552 6.00195 11.1431 6.00195 9.42896 C 6.00195 7.71487 6.00195 7.98098 6.00195 7.98098 C 6.00195 6.533 6.00195 5.67869 6.00195 5.67869 L 33.7469 5.67869 C 33.7469 5.67869 33.7469 6.9618 33.7469 7.98098 C 33.7469 9.00016 33.7468 9.0006 33.7468 9.42896 C 33.7468 9.85732 33.7468 16.6968 33.7468 16.6968 C 33.7468 17.4154 34.2199 18 34.8015 18 L 36.813 18 C 37.3945 18 37.8677 17.4154 37.8677 16.6968 L 37.8677 5.67879 L 38.9453 5.67879 C 39.5269 5.67879 40 5.09419 40 4.3756 L 40 1.30328 C 40 0.584598 39.5269 0 38.9453 0 Z M 4.83008 16.4073 L 3.05289 16.4073 L 3.05289 5.67879 L 4.83008 5.67879 L 4.83008 16.4073 Z M 36.6959 16.552 L 34.9188 16.552 L 34.9188 5.67879 L 36.6959 5.67879 L 36.6959 16.552 Z" stroke-linecap="round" />
</g>
<g transform="matrix(9.16 0 0 9.16 236.94 155.35)" id="EurBkbWaGdc6qn2Tk7AyU"  >
<path style="stroke: none; stroke-width: 1; stroke-dasharray: none; stroke-linecap: butt; stroke-dashoffset: 0; stroke-linejoin: miter; stroke-miterlimit: 4; fill: rgb(2,2,2); fill-rule: nonzero; opacity: 1;" vector-effect="non-scaling-stroke"  transform=" translate(-7.27, -10.83)" d="M 7.268 21 C 6.02 21 4.902 20.714 3.914 20.142 C 2.926 19.5527 2.13733 18.764 1.548 17.776 C 0.976 16.788 0.69 15.67 0.69 14.422 C 0.69 14.1793 0.759333 13.9887 0.898 13.85 C 1.054 13.694 1.24467 13.616 1.47 13.616 C 1.69533 13.616 1.886 13.694 2.042 13.85 C 2.198 13.9887 2.276 14.1793 2.276 14.422 C 2.276 15.358 2.49267 16.2073 2.926 16.97 C 3.37667 17.7153 3.97467 18.3133 4.72 18.764 C 5.48267 19.1973 6.332 19.414 7.268 19.414 C 8.22133 19.414 9.07067 19.1973 9.816 18.764 C 10.5613 18.3133 11.1507 17.7153 11.584 16.97 C 12.0347 16.2073 12.26 15.358 12.26 14.422 C 12.26 13.4687 12.0347 12.6193 11.584 11.874 C 11.1507 11.1113 10.5613 10.5133 9.816 10.08 C 9.07067 9.62933 8.22133 9.404 7.268 9.404 L 2.536 9.404 C 2.31067 9.404 2.12 9.33467 1.964 9.196 C 1.82533 9.04 1.756 8.84933 1.756 8.624 L 1.756 1.448 C 1.756 1.22267 1.82533 1.04067 1.964 0.901998 C 2.12 0.745998 2.31067 0.667998 2.536 0.667998 L 12 0.667998 C 12.2253 0.667998 12.416 0.745998 12.572 0.901998 C 12.728 1.04067 12.806 1.22267 12.806 1.448 C 12.806 1.67333 12.728 1.864 12.572 2.02 C 12.416 2.176 12.2253 2.254 12 2.254 L 3.316 2.254 L 3.316 7.844 L 7.268 7.844 C 8.516 7.844 9.634 8.13 10.622 8.702 C 11.61 9.274 12.39 10.0627 12.962 11.068 C 13.5513 12.056 13.846 13.174 13.846 14.422 C 13.846 15.67 13.5513 16.788 12.962 17.776 C 12.39 18.764 11.61 19.5527 10.622 20.142 C 9.634 20.714 8.516 21 7.268 21 Z" stroke-linecap="round" />
</g>
</svg>