<svg width="69" height="68" viewBox="0 0 69 68" fill="none" xmlns="http://www.w3.org/2000/svg">
<path d="M21.3036 63.452C21.5781 62.7698 22.3533 62.4397 23.0353 62.7139C34.7408 67.4231 48.0686 64.7016 56.9893 55.7809C67.0808 45.6894 68.9691 29.9583 61.9806 17.8492V17.7629H61.9306L61.8874 17.7881C61.9019 17.8129 61.9163 17.8378 61.9306 17.8626L21.3036 63.452ZM21.3036 63.452C21.0291 64.1341 21.3597 64.9094 22.0417 65.1837C26.1769 66.8473 30.4979 67.6559 34.7805 67.6559C43.6474 67.6559 52.3468 64.1884 58.8718 57.6634C64.6985 51.8368 68.2148 44.1055 68.7733 35.8939C69.2769 28.4871 67.3564 21.1435 63.3435 14.9833L21.3036 63.452ZM63.3108 14.8833H63.2184L63.269 14.9607C67.2982 21.122 69.2277 28.4745 68.7234 35.8905C68.1657 44.0901 64.6546 51.81 58.8365 57.6281C52.321 64.1435 43.6344 67.6059 34.7805 67.6059C30.5042 67.6059 26.1896 66.7985 22.0604 65.1374C21.4039 64.8733 21.0858 64.1271 21.35 63.4707C21.6142 62.8141 22.3602 62.4964 23.0167 62.7603C34.7407 67.477 48.0898 64.7512 57.0247 55.8163C67.1564 45.6845 69.0325 29.8776 61.9739 17.7378L61.8806 17.5775V17.7629V19.4147C61.8806 20.1222 61.3071 20.6957 60.5996 20.6957C59.892 20.6957 59.3185 20.1222 59.3185 19.4147V13.6023C59.3185 12.8947 59.892 12.3212 60.5996 12.3212H66.412C67.1195 12.3212 67.693 12.8947 67.693 13.6023C67.693 14.3098 67.1195 14.8833 66.412 14.8833H63.3108Z" fill="#64D370" stroke="#E5E5E5" stroke-width="0.1"/>
<path d="M7.05588 50.3616L7.14882 50.5173V50.3359V48.4416C7.14882 47.734 7.72235 47.1605 8.42989 47.1605C9.13743 47.1605 9.71096 47.734 9.71083 48.4415V54.3759C9.71083 55.0834 9.1373 55.657 8.42976 55.657H2.49544C1.7879 55.657 1.21436 55.0834 1.21436 54.3759C1.21436 53.6683 1.7879 53.0948 2.49544 53.0948H5.65873H5.75187L5.7004 53.0172C1.59174 46.8198 -0.380699 39.3976 0.128491 31.9102C0.686188 23.7108 4.19745 15.9908 10.0155 10.1726C14.8517 5.33641 20.9448 2.10179 27.6359 0.818395C34.1656 -0.434053 40.8577 0.231848 46.9894 2.74388L47.0082 2.69812L46.9894 2.74389C47.6441 3.01201 47.9574 3.76016 47.6893 4.41491C47.421 5.06942 46.673 5.38302 46.0181 5.11464L45.9994 5.16038L46.0181 5.11463C34.2446 0.29157 20.8236 2.9881 11.8272 11.9844C1.61219 22.1995 -0.209401 38.1832 7.05588 50.3616Z" fill="#64D370" stroke="#E5E5E5" stroke-width="0.1"/>
<path d="M31.2179 28.7607C31.0079 28.8646 30.8477 29.0476 30.7727 29.2695C30.6977 29.4915 30.7138 29.7341 30.8177 29.9441L35.2166 38.8381C35.3205 39.0481 35.5035 39.2083 35.7254 39.2833C35.9474 39.3584 36.19 39.3422 36.4 39.2383C36.61 39.1344 36.7701 38.9514 36.8452 38.7295C36.9202 38.5076 36.904 38.2649 36.8002 38.0549L32.4013 29.1609C32.2974 28.9509 32.1144 28.7908 31.8925 28.7157C31.6705 28.6407 31.4279 28.6569 31.2179 28.7607Z" fill="#64D370" stroke="#64D370" stroke-width="0.2"/>
<path d="M40.5453 36.203L36.1464 27.309C36.0425 27.099 35.8595 26.9389 35.6376 26.8638C35.4157 26.7888 35.173 26.805 34.963 26.9088C34.753 27.0127 34.5929 27.1957 34.5178 27.4177C34.4428 27.6396 34.459 27.8823 34.5628 28.0923L38.9617 36.9863C39.0656 37.1963 39.2486 37.3564 39.4705 37.4314C39.6925 37.5065 39.9351 37.4903 40.1451 37.3864C40.3551 37.2826 40.5153 37.0996 40.5903 36.8776C40.6654 36.6557 40.6492 36.413 40.5453 36.203Z" fill="#64D370" stroke="#64D370" stroke-width="0.2"/>
<path d="M32.7771 16.7215C41.0508 14.3827 50.5885 16.7967 51.6963 17.077C51.7388 17.0878 51.7689 17.0954 51.786 17.0995L51.795 17.1016L51.7949 17.1021L51.8579 17.1233L51.8665 17.1263L51.8745 17.1307C51.9099 17.1505 51.9438 17.1727 51.9759 17.1973C52.0253 17.2241 52.0721 17.2556 52.1154 17.2914L52.1212 17.2963L52.121 17.2965C52.1605 17.3344 52.1962 17.3761 52.2277 17.421C52.3053 17.5073 52.3571 17.6137 52.3774 17.7281L52.279 17.7455L52.3778 17.7302C52.3878 17.7948 52.3903 17.8602 52.3853 17.9253C52.387 17.9795 52.3836 18.0337 52.3752 18.0872C52.3753 18.1277 52.3724 18.1681 52.3667 18.2081L52.3649 18.2202L52.3604 18.2314L52.337 18.289C52.337 18.2891 52.3369 18.2892 52.3369 18.2893C52.2024 18.6284 49.0118 26.4667 43.101 31.9464L45.1349 36.0588C45.9347 37.6041 46.2225 39.3637 45.9568 41.0834L45.9564 41.0857L45.6553 42.7696C45.6552 42.7702 45.6552 42.7707 45.6551 42.7713C45.4634 44.1055 45.6898 45.4664 46.3032 46.6667L46.3038 46.6679L49.5798 53.2916C49.6837 53.5016 49.6998 53.7442 49.6248 53.9662C49.5497 54.1881 49.3896 54.3711 49.1796 54.475C48.9696 54.5789 48.727 54.595 48.505 54.52C48.2831 54.4449 48.1001 54.2848 47.9962 54.0748L44.7206 47.4519C43.9279 45.911 43.6435 44.1586 43.908 42.4461L43.9084 42.4438L44.2094 40.7598C44.2095 40.7593 44.2096 40.7588 44.2097 40.7582C44.4025 39.417 44.1728 38.049 43.5525 36.8443L43.5517 36.8428L38.3078 26.2402C38.2039 26.0303 38.1877 25.7876 38.2628 25.5657C38.3378 25.3437 38.498 25.1607 38.708 25.0568C38.918 24.953 39.1606 24.9368 39.3826 25.0118C39.6045 25.0869 39.7875 25.247 39.8914 25.457L42.2826 30.2918C46.5255 26.1845 49.2891 20.7364 50.3041 18.5644C47.5932 17.9536 39.8507 16.5439 33.2328 18.4328C33.7171 20.482 34.0411 22.5659 34.2017 24.6656L34.2018 24.6659C34.2189 24.8996 34.1425 25.1306 33.9894 25.3079C33.8362 25.4853 33.6189 25.5946 33.3852 25.6118C33.1515 25.6289 32.9205 25.5525 32.7432 25.3994C32.566 25.2464 32.4567 25.0294 32.4394 24.796C32.1427 21.3771 31.437 18.0066 30.3377 14.7565L21.3662 41.264C23.3336 40.9682 27.0888 40.0092 29.61 36.9258L27.0732 31.7967C26.9694 31.5867 26.9532 31.3441 27.0282 31.1222C27.1033 30.9002 27.2634 30.7172 27.4734 30.6133C27.6834 30.5095 27.9261 30.4933 28.148 30.5683C28.3699 30.6434 28.553 30.8035 28.6568 31.0135L33.9008 41.6161L33.9015 41.6176C34.4821 42.8419 35.43 43.8548 36.6132 44.5153C36.6137 44.5156 36.6142 44.5158 36.6147 44.5161L38.1357 45.2989L38.1378 45.2999C39.6596 46.1288 40.8798 47.4184 41.6231 48.9838L44.8987 55.6068C45.0026 55.8168 45.0188 56.0594 44.9437 56.2814C44.8687 56.5033 44.7085 56.6863 44.4985 56.7902C44.2886 56.8941 44.0459 56.9102 43.824 56.8352C43.602 56.7601 43.419 56.6 43.3151 56.39L40.0391 49.7663L40.0385 49.7651C39.4571 48.5488 38.5127 47.5428 37.3356 46.8857C37.3352 46.8855 37.3349 46.8852 37.3345 46.885L35.8035 46.0832L35.8021 46.0825C34.2803 45.2536 33.0601 43.964 32.3168 42.3986L30.46 38.6443C29.3507 39.8302 28.0328 40.8028 26.5717 41.5132C26.5716 41.5132 26.5715 41.5132 26.5714 41.5133L26.5277 41.4233C24.5135 42.4083 22.3189 42.9702 20.0792 43.0746L32.7771 16.7215ZM32.7771 16.7215C32.3265 15.0338 31.7702 13.3761 31.1116 11.7582L31.0799 11.6803L31.074 11.6816M32.7771 16.7215L31.074 11.6816M31.074 11.6816L31.074 11.6815L31.0739 11.6814L31.0739 11.6813L31.0738 11.6813L31.0738 11.6812L31.0737 11.6811L31.0737 11.681L31.0737 11.6809L31.0736 11.6808L31.0736 11.6807L31.0735 11.6806L31.0735 11.6806L31.0734 11.6805L31.0734 11.6804L31.0733 11.6803L31.0733 11.6802L31.0733 11.6801L31.0732 11.68L31.0732 11.6799L31.0731 11.6799L31.0731 11.6798L31.073 11.6797L31.073 11.6796L31.073 11.6795L31.0729 11.6794L31.0729 11.6793L31.0728 11.6792L31.0728 11.6791L31.0727 11.679L31.0727 11.6789L31.0726 11.6789L31.0726 11.6788L31.0725 11.6787L31.0725 11.6786L31.0725 11.6785L31.0724 11.6784L31.0724 11.6783L31.0723 11.6782L31.0723 11.6781L31.0722 11.678L31.0722 11.6779L31.0721 11.6778L31.0721 11.6777L31.072 11.6776L31.072 11.6776L31.0719 11.6775L31.0719 11.6774L31.0719 11.6773L31.0718 11.6772L31.0718 11.6771L31.0717 11.677L31.0717 11.6769L31.0716 11.6768L31.0716 11.6767L31.0715 11.6766L31.0715 11.6765L31.0714 11.6764L31.0714 11.6763L31.0713 11.6762L31.0713 11.6761L31.0712 11.676L31.0712 11.6759L31.0711 11.6758L31.074 11.6816ZM20.0861 43.1827L20.1048 43.1735L31.0024 11.5378L30.9171 11.5899L30.9925 11.5243C30.9452 11.4699 30.8912 11.4217 30.832 11.3807L30.8299 11.3766L30.8172 11.3509L30.7927 11.3358C30.7246 11.2939 30.651 11.2616 30.574 11.2398L30.5468 11.3361L30.5703 11.2389C30.4996 11.2218 30.4271 11.2135 30.3545 11.2142L30.3316 11.2144L30.3111 11.2246L30.3003 11.2299C30.234 11.2359 30.1686 11.2491 30.1052 11.2694L30.098 11.2717L30.0913 11.275L29.8994 11.3699L29.8993 11.3697L29.8927 11.3736C27.6549 12.7025 25.5375 14.2245 23.5648 15.9222C20.4805 18.5561 16.4307 22.7616 14.7256 27.8157C13.2553 32.1635 14.3587 35.8767 15.8793 38.5407C17.3642 41.1423 19.2498 42.7489 19.5376 42.9825L19.544 42.9955L19.5551 43.018L19.5755 43.0325C19.6217 43.0656 19.6711 43.0941 19.7228 43.1176L19.7228 43.1177L19.7276 43.1196L19.7999 43.148L19.7996 43.1488L19.8126 43.152L19.9386 43.1829L19.9458 43.1847L19.9532 43.1853L20.0326 43.1927L20.0607 43.1953L20.0861 43.1827ZM19.0245 23.3178C21.9906 19.121 26.1698 15.8994 28.6545 14.1992L22.9126 31.179L19.0245 23.3178ZM19.6929 40.7118C17.8805 38.8791 14.3441 34.3295 16.3703 28.337C16.7681 27.1852 17.2802 26.0763 17.8988 25.0268L22.1145 33.5505L19.6929 40.7118Z" fill="#64D370" stroke="#64D370" stroke-width="0.2"/>
</svg>
