<svg width="69" height="68" viewBox="0 0 69 68" fill="none" xmlns="http://www.w3.org/2000/svg">
<mask id="path-1-inside-1_739_3483" fill="white">
<path d="M63.3108 14.9333H66.412C67.1471 14.9333 67.743 14.3374 67.743 13.6023C67.743 12.8671 67.1471 12.2712 66.412 12.2712H60.5996C59.8644 12.2712 59.2685 12.8671 59.2685 13.6023V19.4147C59.2685 20.1498 59.8644 20.7457 60.5996 20.7457C61.3347 20.7457 61.9306 20.1498 61.9306 19.4147V17.7629C68.978 29.8834 67.1048 45.6654 56.9893 55.7809C48.0686 64.7016 34.7408 67.4231 23.0353 62.7139C22.3533 62.4397 21.5781 62.7698 21.3036 63.452C21.0291 64.1341 21.3597 64.9094 22.0417 65.1837C26.1769 66.8473 30.4979 67.6559 34.7805 67.6559C43.6474 67.6559 52.3468 64.1884 58.8718 57.6635C64.6985 51.8368 68.2148 44.1055 68.7733 35.8939C69.2783 28.467 67.346 21.1038 63.3108 14.9333Z"/>
</mask>
<path d="M63.3108 14.9333H66.412C67.1471 14.9333 67.743 14.3374 67.743 13.6023C67.743 12.8671 67.1471 12.2712 66.412 12.2712H60.5996C59.8644 12.2712 59.2685 12.8671 59.2685 13.6023V19.4147C59.2685 20.1498 59.8644 20.7457 60.5996 20.7457C61.3347 20.7457 61.9306 20.1498 61.9306 19.4147V17.7629C68.978 29.8834 67.1048 45.6654 56.9893 55.7809C48.0686 64.7016 34.7408 67.4231 23.0353 62.7139C22.3533 62.4397 21.5781 62.7698 21.3036 63.452C21.0291 64.1341 21.3597 64.9094 22.0417 65.1837C26.1769 66.8473 30.4979 67.6559 34.7805 67.6559C43.6474 67.6559 52.3468 64.1884 58.8718 57.6635C64.6985 51.8368 68.2148 44.1055 68.7733 35.8939C69.2783 28.467 67.346 21.1038 63.3108 14.9333Z" fill="#64D370" stroke="#E5E5E5" stroke-width="0.2" mask="url(#path-1-inside-1_739_3483)"/>
<mask id="path-2-inside-2_739_3483" fill="white">
<path d="M8.42989 47.1105C7.69474 47.1105 7.09882 47.7064 7.09882 48.4416V50.3359C-0.154864 38.177 1.66391 22.2185 11.8626 12.0198C20.8447 3.03771 34.2443 0.345477 45.9992 5.1609C46.6796 5.43976 47.4568 5.11391 47.7355 4.43387C48.0141 3.75356 47.6886 2.97621 47.0084 2.69762C40.8676 0.181888 34.1657 -0.48498 27.6265 0.769291C20.9255 2.05458 14.8234 5.29401 9.98019 10.1373C4.15355 15.964 0.637125 23.6953 0.0786063 31.9068C-0.431328 39.4052 1.54398 46.8383 5.65873 53.0448H2.49544C1.76028 53.0448 1.16436 53.6407 1.16436 54.3759C1.16436 55.111 1.76028 55.707 2.49544 55.707H8.42976C9.16491 55.707 9.76083 55.111 9.76083 54.3759V48.4416C9.76096 47.7064 9.16504 47.1105 8.42989 47.1105Z"/>
</mask>
<path d="M8.42989 47.1105C7.69474 47.1105 7.09882 47.7064 7.09882 48.4416V50.3359C-0.154864 38.177 1.66391 22.2185 11.8626 12.0198C20.8447 3.03771 34.2443 0.345477 45.9992 5.1609C46.6796 5.43976 47.4568 5.11391 47.7355 4.43387C48.0141 3.75356 47.6886 2.97621 47.0084 2.69762C40.8676 0.181888 34.1657 -0.48498 27.6265 0.769291C20.9255 2.05458 14.8234 5.29401 9.98019 10.1373C4.15355 15.964 0.637125 23.6953 0.0786063 31.9068C-0.431328 39.4052 1.54398 46.8383 5.65873 53.0448H2.49544C1.76028 53.0448 1.16436 53.6407 1.16436 54.3759C1.16436 55.111 1.76028 55.707 2.49544 55.707H8.42976C9.16491 55.707 9.76083 55.111 9.76083 54.3759V48.4416C9.76096 47.7064 9.16504 47.1105 8.42989 47.1105Z" fill="#64D370" stroke="#E5E5E5" stroke-width="0.2" mask="url(#path-2-inside-2_739_3483)"/>
<mask id="path-3-outside-3_739_3483" maskUnits="userSpaceOnUse" x="29.2204" y="27.4146" width="8.45237" height="12.9826" fill="black">
<rect fill="white" x="29.2204" y="27.4146" width="8.45237" height="12.9826"/>
<path d="M31.2622 28.8504C31.076 28.9425 30.934 29.1048 30.8674 29.3016C30.8009 29.4984 30.8152 29.7136 30.9073 29.8998L35.3062 38.7938C35.3983 38.98 35.5606 39.122 35.7575 39.1886C35.9543 39.2551 36.1694 39.2408 36.3557 39.1487C36.5419 39.0566 36.6839 38.8943 36.7505 38.6975C36.817 38.5006 36.8027 38.2855 36.7105 38.0992L32.3117 29.2052C32.2196 29.019 32.0572 28.877 31.8604 28.8104C31.6636 28.7439 31.4484 28.7582 31.2622 28.8504Z"/>
</mask>
<path d="M31.2622 28.8504C31.076 28.9425 30.934 29.1048 30.8674 29.3016C30.8009 29.4984 30.8152 29.7136 30.9073 29.8998L35.3062 38.7938C35.3983 38.98 35.5606 39.122 35.7575 39.1886C35.9543 39.2551 36.1694 39.2408 36.3557 39.1487C36.5419 39.0566 36.6839 38.8943 36.7505 38.6975C36.817 38.5006 36.8027 38.2855 36.7105 38.0992L32.3117 29.2052C32.2196 29.019 32.0572 28.877 31.8604 28.8104C31.6636 28.7439 31.4484 28.7582 31.2622 28.8504Z" fill="#64D370"/>
<path d="M31.2622 28.8504C31.076 28.9425 30.934 29.1048 30.8674 29.3016C30.8009 29.4984 30.8152 29.7136 30.9073 29.8998L35.3062 38.7938C35.3983 38.98 35.5606 39.122 35.7575 39.1886C35.9543 39.2551 36.1694 39.2408 36.3557 39.1487C36.5419 39.0566 36.6839 38.8943 36.7505 38.6975C36.817 38.5006 36.8027 38.2855 36.7105 38.0992L32.3117 29.2052C32.2196 29.019 32.0572 28.877 31.8604 28.8104C31.6636 28.7439 31.4484 28.7582 31.2622 28.8504Z" stroke="#64D370" stroke-width="0.4" mask="url(#path-3-outside-3_739_3483)"/>
<mask id="path-4-outside-4_739_3483" maskUnits="userSpaceOnUse" x="32.9655" y="25.5627" width="8.45237" height="12.9826" fill="black">
<rect fill="white" x="32.9655" y="25.5627" width="8.45237" height="12.9826"/>
<path d="M40.4557 36.2474L36.0568 27.3534C35.9647 27.1671 35.8024 27.0251 35.6056 26.9586C35.4087 26.892 35.1936 26.9064 35.0073 26.9985C34.8211 27.0906 34.6791 27.2529 34.6125 27.4497C34.546 27.6465 34.5604 27.8617 34.6525 28.0479L39.0513 36.9419C39.1435 37.1282 39.3058 37.2702 39.5026 37.3367C39.6994 37.4033 39.9146 37.3889 40.1008 37.2968C40.287 37.2047 40.429 37.0424 40.4956 36.8456C40.5621 36.6488 40.5478 36.4336 40.4557 36.2474V36.2474Z"/>
</mask>
<path d="M40.4557 36.2474L36.0568 27.3534C35.9647 27.1671 35.8024 27.0251 35.6056 26.9586C35.4087 26.892 35.1936 26.9064 35.0073 26.9985C34.8211 27.0906 34.6791 27.2529 34.6125 27.4497C34.546 27.6465 34.5604 27.8617 34.6525 28.0479L39.0513 36.9419C39.1435 37.1282 39.3058 37.2702 39.5026 37.3367C39.6994 37.4033 39.9146 37.3889 40.1008 37.2968C40.287 37.2047 40.429 37.0424 40.4956 36.8456C40.5621 36.6488 40.5478 36.4336 40.4557 36.2474V36.2474Z" fill="#64D370"/>
<path d="M40.4557 36.2474L36.0568 27.3534C35.9647 27.1671 35.8024 27.0251 35.6056 26.9586C35.4087 26.892 35.1936 26.9064 35.0073 26.9985C34.8211 27.0906 34.6791 27.2529 34.6125 27.4497C34.546 27.6465 34.5604 27.8617 34.6525 28.0479L39.0513 36.9419C39.1435 37.1282 39.3058 37.2702 39.5026 37.3367C39.6994 37.4033 39.9146 37.3889 40.1008 37.2968C40.287 37.2047 40.429 37.0424 40.4956 36.8456C40.5621 36.6488 40.5478 36.4336 40.4557 36.2474V36.2474Z" stroke="#64D370" stroke-width="0.4" mask="url(#path-4-outside-4_739_3483)"/>
<mask id="path-5-outside-5_739_3483" maskUnits="userSpaceOnUse" x="6.60709" y="2.82282" width="60.2666" height="62.9848" fill="black">
<rect fill="white" x="6.60709" y="2.82282" width="60.2666" height="62.9848"/>
<path d="M52.279 17.7455C52.2616 17.6476 52.2166 17.5566 52.1493 17.4834C52.1207 17.4419 52.088 17.4034 52.0517 17.3685C52.0113 17.3352 51.9676 17.306 51.9213 17.2815C51.8912 17.2579 51.8593 17.2367 51.8258 17.2181L51.7629 17.1968C51.2939 17.085 41.291 14.3768 32.7066 16.8456C32.2525 15.128 31.6888 13.4413 31.0189 11.7959C31.0189 11.7959 31.0189 11.7959 31.0051 11.7678C30.9912 11.7397 30.9889 11.735 30.9796 11.7163C30.9625 11.6724 30.9416 11.6301 30.9171 11.5899V11.5899C30.8697 11.5355 30.8149 11.4881 30.7542 11.4491L30.7403 11.421C30.68 11.3839 30.6149 11.3553 30.5468 11.3361V11.3361C30.4842 11.3209 30.4199 11.3136 30.3554 11.3142L30.3273 11.3281C30.2622 11.3325 30.1978 11.3447 30.1357 11.3646L29.9437 11.4596C27.7109 12.7855 25.5982 14.3042 23.6299 15.9981C20.5496 18.6285 16.5167 22.8196 14.8203 27.8476C11.9032 36.474 19.1939 42.5803 19.6175 42.9184L19.6337 42.9512C19.6746 42.9805 19.7183 43.0057 19.7641 43.0265L19.8364 43.0549L19.9624 43.0858L20.0418 43.0931L20.0792 43.0746C22.3189 42.9702 24.5135 42.4083 26.5277 41.4233C28.0214 40.6972 29.3641 39.6951 30.4852 38.4697L32.4068 42.355C33.141 43.9016 34.3464 45.1758 35.8499 45.9946L37.3832 46.7977C38.5789 47.4649 39.5382 48.4866 40.1288 49.722L43.4048 56.3457C43.4969 56.5319 43.6592 56.6739 43.856 56.7405C44.0528 56.807 44.268 56.7927 44.4542 56.7006C44.6404 56.6085 44.7825 56.4461 44.849 56.2493C44.9156 56.0525 44.9012 55.8373 44.8091 55.6511L41.5331 49.0274C40.7989 47.4808 39.5935 46.2066 38.09 45.3878L36.566 44.6035C35.3639 43.9329 34.401 42.9041 33.8111 41.6604L28.5672 31.0578C28.4751 30.8716 28.3128 30.7296 28.116 30.6631C27.9192 30.5965 27.704 30.6109 27.5178 30.703C27.3315 30.7951 27.1895 30.9574 27.123 31.1542C27.0564 31.351 27.0708 31.5662 27.1629 31.7524L29.7281 36.939C27.1123 40.1787 23.1542 41.1168 21.2193 41.3863L30.3372 14.446C31.4937 17.7896 32.2332 21.2632 32.5391 24.7879C32.5543 24.9951 32.6512 25.1879 32.8085 25.3237C32.9658 25.4595 33.1706 25.5272 33.3779 25.512C33.5851 25.4968 33.7779 25.3999 33.9137 25.2426C34.0495 25.0853 34.1172 24.8805 34.102 24.6732C33.9393 22.5471 33.6088 20.4371 33.1134 18.3631C39.8786 16.3979 47.8385 17.8968 50.447 18.4943C49.4686 20.6037 46.6415 26.255 42.2535 30.4586L39.8017 25.5014C39.7096 25.3151 39.5473 25.1731 39.3505 25.1066C39.1537 25.04 38.9385 25.0544 38.7523 25.1465C38.5661 25.2386 38.4241 25.4009 38.3575 25.5977C38.291 25.7945 38.3053 26.0097 38.3974 26.1959L43.6414 36.7985C44.2715 38.0222 44.5046 39.4118 44.3084 40.7741L44.0068 42.4614C43.7455 44.1533 44.0266 45.8845 44.8098 47.4068L48.0858 54.0305C48.1779 54.2167 48.3402 54.3587 48.5371 54.4253C48.7339 54.4918 48.9491 54.4775 49.1353 54.3854C49.3215 54.2932 49.4635 54.1309 49.5301 53.9341C49.5966 53.7373 49.5823 53.5221 49.4902 53.3359L46.2141 46.7122C45.5911 45.493 45.3612 44.1106 45.5563 42.7554L45.8579 41.0681C46.1205 39.3691 45.836 37.6306 45.0457 36.1039L42.9782 31.9238C48.9084 26.4564 52.1118 18.5856 52.2441 18.2522L52.2677 18.1939C52.2731 18.156 52.2756 18.1178 52.2752 18.0795C52.2838 18.0278 52.2872 17.9754 52.2852 17.9231C52.2901 17.8638 52.288 17.8042 52.279 17.7455V17.7455ZM28.8446 13.9491L22.93 31.4398L18.9085 23.3088C21.987 18.9314 26.3851 15.6083 28.8446 13.9491ZM19.736 40.8964C17.957 39.1371 14.1866 34.4824 16.2757 28.3047C16.6957 27.0884 17.2425 25.9197 17.907 24.8178L22.2225 33.5433L19.736 40.8964Z"/>
</mask>
<path d="M52.279 17.7455C52.2616 17.6476 52.2166 17.5566 52.1493 17.4834C52.1207 17.4419 52.088 17.4034 52.0517 17.3685C52.0113 17.3352 51.9676 17.306 51.9213 17.2815C51.8912 17.2579 51.8593 17.2367 51.8258 17.2181L51.7629 17.1968C51.2939 17.085 41.291 14.3768 32.7066 16.8456C32.2525 15.128 31.6888 13.4413 31.0189 11.7959C31.0189 11.7959 31.0189 11.7959 31.0051 11.7678C30.9912 11.7397 30.9889 11.735 30.9796 11.7163C30.9625 11.6724 30.9416 11.6301 30.9171 11.5899V11.5899C30.8697 11.5355 30.8149 11.4881 30.7542 11.4491L30.7403 11.421C30.68 11.3839 30.6149 11.3553 30.5468 11.3361V11.3361C30.4842 11.3209 30.4199 11.3136 30.3554 11.3142L30.3273 11.3281C30.2622 11.3325 30.1978 11.3447 30.1357 11.3646L29.9437 11.4596C27.7109 12.7855 25.5982 14.3042 23.6299 15.9981C20.5496 18.6285 16.5167 22.8196 14.8203 27.8476C11.9032 36.474 19.1939 42.5803 19.6175 42.9184L19.6337 42.9512C19.6746 42.9805 19.7183 43.0057 19.7641 43.0265L19.8364 43.0549L19.9624 43.0858L20.0418 43.0931L20.0792 43.0746C22.3189 42.9702 24.5135 42.4083 26.5277 41.4233C28.0214 40.6972 29.3641 39.6951 30.4852 38.4697L32.4068 42.355C33.141 43.9016 34.3464 45.1758 35.8499 45.9946L37.3832 46.7977C38.5789 47.4649 39.5382 48.4866 40.1288 49.722L43.4048 56.3457C43.4969 56.5319 43.6592 56.6739 43.856 56.7405C44.0528 56.807 44.268 56.7927 44.4542 56.7006C44.6404 56.6085 44.7825 56.4461 44.849 56.2493C44.9156 56.0525 44.9012 55.8373 44.8091 55.6511L41.5331 49.0274C40.7989 47.4808 39.5935 46.2066 38.09 45.3878L36.566 44.6035C35.3639 43.9329 34.401 42.9041 33.8111 41.6604L28.5672 31.0578C28.4751 30.8716 28.3128 30.7296 28.116 30.6631C27.9192 30.5965 27.704 30.6109 27.5178 30.703C27.3315 30.7951 27.1895 30.9574 27.123 31.1542C27.0564 31.351 27.0708 31.5662 27.1629 31.7524L29.7281 36.939C27.1123 40.1787 23.1542 41.1168 21.2193 41.3863L30.3372 14.446C31.4937 17.7896 32.2332 21.2632 32.5391 24.7879C32.5543 24.9951 32.6512 25.1879 32.8085 25.3237C32.9658 25.4595 33.1706 25.5272 33.3779 25.512C33.5851 25.4968 33.7779 25.3999 33.9137 25.2426C34.0495 25.0853 34.1172 24.8805 34.102 24.6732C33.9393 22.5471 33.6088 20.4371 33.1134 18.3631C39.8786 16.3979 47.8385 17.8968 50.447 18.4943C49.4686 20.6037 46.6415 26.255 42.2535 30.4586L39.8017 25.5014C39.7096 25.3151 39.5473 25.1731 39.3505 25.1066C39.1537 25.04 38.9385 25.0544 38.7523 25.1465C38.5661 25.2386 38.4241 25.4009 38.3575 25.5977C38.291 25.7945 38.3053 26.0097 38.3974 26.1959L43.6414 36.7985C44.2715 38.0222 44.5046 39.4118 44.3084 40.7741L44.0068 42.4614C43.7455 44.1533 44.0266 45.8845 44.8098 47.4068L48.0858 54.0305C48.1779 54.2167 48.3402 54.3587 48.5371 54.4253C48.7339 54.4918 48.9491 54.4775 49.1353 54.3854C49.3215 54.2932 49.4635 54.1309 49.5301 53.9341C49.5966 53.7373 49.5823 53.5221 49.4902 53.3359L46.2141 46.7122C45.5911 45.493 45.3612 44.1106 45.5563 42.7554L45.8579 41.0681C46.1205 39.3691 45.836 37.6306 45.0457 36.1039L42.9782 31.9238C48.9084 26.4564 52.1118 18.5856 52.2441 18.2522L52.2677 18.1939C52.2731 18.156 52.2756 18.1178 52.2752 18.0795C52.2838 18.0278 52.2872 17.9754 52.2852 17.9231C52.2901 17.8638 52.288 17.8042 52.279 17.7455V17.7455ZM28.8446 13.9491L22.93 31.4398L18.9085 23.3088C21.987 18.9314 26.3851 15.6083 28.8446 13.9491ZM19.736 40.8964C17.957 39.1371 14.1866 34.4824 16.2757 28.3047C16.6957 27.0884 17.2425 25.9197 17.907 24.8178L22.2225 33.5433L19.736 40.8964Z" fill="#64D370"/>
<path d="M52.279 17.7455C52.2616 17.6476 52.2166 17.5566 52.1493 17.4834C52.1207 17.4419 52.088 17.4034 52.0517 17.3685C52.0113 17.3352 51.9676 17.306 51.9213 17.2815C51.8912 17.2579 51.8593 17.2367 51.8258 17.2181L51.7629 17.1968C51.2939 17.085 41.291 14.3768 32.7066 16.8456C32.2525 15.128 31.6888 13.4413 31.0189 11.7959C31.0189 11.7959 31.0189 11.7959 31.0051 11.7678C30.9912 11.7397 30.9889 11.735 30.9796 11.7163C30.9625 11.6724 30.9416 11.6301 30.9171 11.5899V11.5899C30.8697 11.5355 30.8149 11.4881 30.7542 11.4491L30.7403 11.421C30.68 11.3839 30.6149 11.3553 30.5468 11.3361V11.3361C30.4842 11.3209 30.4199 11.3136 30.3554 11.3142L30.3273 11.3281C30.2622 11.3325 30.1978 11.3447 30.1357 11.3646L29.9437 11.4596C27.7109 12.7855 25.5982 14.3042 23.6299 15.9981C20.5496 18.6285 16.5167 22.8196 14.8203 27.8476C11.9032 36.474 19.1939 42.5803 19.6175 42.9184L19.6337 42.9512C19.6746 42.9805 19.7183 43.0057 19.7641 43.0265L19.8364 43.0549L19.9624 43.0858L20.0418 43.0931L20.0792 43.0746C22.3189 42.9702 24.5135 42.4083 26.5277 41.4233C28.0214 40.6972 29.3641 39.6951 30.4852 38.4697L32.4068 42.355C33.141 43.9016 34.3464 45.1758 35.8499 45.9946L37.3832 46.7977C38.5789 47.4649 39.5382 48.4866 40.1288 49.722L43.4048 56.3457C43.4969 56.5319 43.6592 56.6739 43.856 56.7405C44.0528 56.807 44.268 56.7927 44.4542 56.7006C44.6404 56.6085 44.7825 56.4461 44.849 56.2493C44.9156 56.0525 44.9012 55.8373 44.8091 55.6511L41.5331 49.0274C40.7989 47.4808 39.5935 46.2066 38.09 45.3878L36.566 44.6035C35.3639 43.9329 34.401 42.9041 33.8111 41.6604L28.5672 31.0578C28.4751 30.8716 28.3128 30.7296 28.116 30.6631C27.9192 30.5965 27.704 30.6109 27.5178 30.703C27.3315 30.7951 27.1895 30.9574 27.123 31.1542C27.0564 31.351 27.0708 31.5662 27.1629 31.7524L29.7281 36.939C27.1123 40.1787 23.1542 41.1168 21.2193 41.3863L30.3372 14.446C31.4937 17.7896 32.2332 21.2632 32.5391 24.7879C32.5543 24.9951 32.6512 25.1879 32.8085 25.3237C32.9658 25.4595 33.1706 25.5272 33.3779 25.512C33.5851 25.4968 33.7779 25.3999 33.9137 25.2426C34.0495 25.0853 34.1172 24.8805 34.102 24.6732C33.9393 22.5471 33.6088 20.4371 33.1134 18.3631C39.8786 16.3979 47.8385 17.8968 50.447 18.4943C49.4686 20.6037 46.6415 26.255 42.2535 30.4586L39.8017 25.5014C39.7096 25.3151 39.5473 25.1731 39.3505 25.1066C39.1537 25.04 38.9385 25.0544 38.7523 25.1465C38.5661 25.2386 38.4241 25.4009 38.3575 25.5977C38.291 25.7945 38.3053 26.0097 38.3974 26.1959L43.6414 36.7985C44.2715 38.0222 44.5046 39.4118 44.3084 40.7741L44.0068 42.4614C43.7455 44.1533 44.0266 45.8845 44.8098 47.4068L48.0858 54.0305C48.1779 54.2167 48.3402 54.3587 48.5371 54.4253C48.7339 54.4918 48.9491 54.4775 49.1353 54.3854C49.3215 54.2932 49.4635 54.1309 49.5301 53.9341C49.5966 53.7373 49.5823 53.5221 49.4902 53.3359L46.2141 46.7122C45.5911 45.493 45.3612 44.1106 45.5563 42.7554L45.8579 41.0681C46.1205 39.3691 45.836 37.6306 45.0457 36.1039L42.9782 31.9238C48.9084 26.4564 52.1118 18.5856 52.2441 18.2522L52.2677 18.1939C52.2731 18.156 52.2756 18.1178 52.2752 18.0795C52.2838 18.0278 52.2872 17.9754 52.2852 17.9231C52.2901 17.8638 52.288 17.8042 52.279 17.7455V17.7455ZM28.8446 13.9491L22.93 31.4398L18.9085 23.3088C21.987 18.9314 26.3851 15.6083 28.8446 13.9491ZM19.736 40.8964C17.957 39.1371 14.1866 34.4824 16.2757 28.3047C16.6957 27.0884 17.2425 25.9197 17.907 24.8178L22.2225 33.5433L19.736 40.8964Z" stroke="#64D370" stroke-width="0.4" mask="url(#path-5-outside-5_739_3483)"/>
</svg>
